PathFileType	4	(X/Y/Z)	/Users/itak/Documents/Research/Walk-IL/dataset/trc/00290_00010.trc
DataRate	CameraRate	NumFrames	NumMarkers	Units	OrigDataRate	OrigDataStartFrame	OrigNumFrames
100.000000	100.000000	4	53	mm	100.000000	589	674
Frame#	Time	RPSI			LPSI			L3			STRN			T10			C7			CLAV			RBAK			LBAK			LSHO			LUPA			LAEL			LAOL			LWTS			LWPS			LFRA			LHPS			RSHO			RUPA			RAEL			RAOL			RWTS			RWPS			RFRA			RIFD			RHTS			RHPS			RBHD			LFHD			RFHD			LBHD			LHIP			RHIP			RASI			LASI			LKNE			LTHI			LANK			LTIP			LTOE			LMT1			LMT5			LHEE			RKNE			RTHI			RANK			RTIP			RTOE			RMT1			RMT5			RHEE			LIFD			LHTS			
		X1	Y1	Z1	X2	Y2	Z2	X3	Y3	Z3	X4	Y4	Z4	X5	Y5	Z5	X6	Y6	Z6	X7	Y7	Z7	X8	Y8	Z8	X9	Y9	Z9	X10	Y10	Z10	X11	Y11	Z11	X12	Y12	Z12	X13	Y13	Z13	X14	Y14	Z14	X15	Y15	Z15	X16	Y16	Z16	X17	Y17	Z17	X18	Y18	Z18	X19	Y19	Z19	X20	Y20	Z20	X21	Y21	Z21	X22	Y22	Z22	X23	Y23	Z23	X24	Y24	Z24	X25	Y25	Z25	X26	Y26	Z26	X27	Y27	Z27	X28	Y28	Z28	X29	Y29	Z29	X30	Y30	Z30	X31	Y31	Z31	X32	Y32	Z32	X33	Y33	Z33	X34	Y34	Z34	X35	Y35	Z35	X36	Y36	Z36	X37	Y37	Z37	X38	Y38	Z38	X39	Y39	Z39	X40	Y40	Z40	X41	Y41	Z41	X42	Y42	Z42	X43	Y43	Z43	X44	Y44	Z44	X45	Y45	Z45	X46	Y46	Z46	X47	Y47	Z47	X48	Y48	Z48	X49	Y49	Z49	X50	Y50	Z50	X51	Y51	Z51	X52	Y52	Z52	X53	Y53	Z53	

590	5.89	529.8903198242188	990.0848999023438	657.0759887695312	590.083740234375	992.1547241210938	821.8128051757812	548.0533447265625	1067.0244140625	750.5745239257812	324.1287841796875	1250.925048828125	846.6849975585938	569.097412109375	1179.90771484375	753.172119140625	546.009765625	1424.417114257812	797.6892700195312	390.7821350097656	1347.739624023438	834.7815551757812	564.5616455078125	1292.509155273438	699.4927978515625	588.974609375	1377.971435546875	889.8062133789062	520.591552734375	1389.298706054688	965.3158569335938	555.8359985351562	1274.181762695312	1035.91357421875	523.7972412109375	1086.707153320312	1094.615234375	546.1754760742188	1045.921630859375	1021.147155761719	372.67529296875	920.6627807617188	1161.277587890625	431.3947143554688	900.1611328125	1199.428833007812	492.0732727050781	999.4224243164062	1139.152099609375	398.37744140625	826.161865234375	1230.73388671875	433.2947998046875	1417.201416015625	666.778564453125	417.0510559082031	1363.357299804688	597.460693359375	399.8017883300781	1103.693725585938	524.5270385742188	454.7836608886719	1084.617065429688	600.27392578125	282.5975952148438	895.3074951171875	594.8679809570312	305.0487365722656	886.62060546875	513.4664306640625	364.8471374511719	1039.842895507812	516.0028076171875	235.8683471679688	714.3157348632812	591.1474609375	225.8283538818359	789.46875	582.0800170898438	262.2575988769531	781.6055908203125	521.2903442382812	520.7312622070312	1591.751708984375	769.4614868164062	380.0303649902344	1616.5615234375	924.7870483398438	361.7400817871094	1629.50732421875	834.9293212890625	547.9912109375	1562.3203125	910.259033203125	559.09423828125	950.5822143554688	938.4943237304688	395.5467834472656	945.3336181640625	598.3643798828125	313.1387329101562	960.2329711914062	709.30078125	411.4649047851562	959.55078125	941.390869140625	465.0582580566406	488.5724792480469	942.0111083984375	485.3090209960938	630.6258544921875	956.0896606445312	532.2794189453125	43.33439636230469	887.3173217773438	500.8726501464844	257.7965393066406	921.9462280273438	313.546630859375	35.37470626831055	905.6790771484375	366.3653564453125	30.48015403747559	841.7744140625	421.597412109375	40.04049682617188	941.1068725585938	552.2759399414062	40.19118881225586	815.96875	262.1677551269531	494.0383911132812	695.3408813476562	302.3094177246094	748.3422241210938	643.7225341796875	446.2266235351562	77.62995910644531	655.27685546875	284.8952331542969	368.962158203125	702.6988525390625	307.65673828125	70.21471405029297	792.6864013671875	375.5119323730469	68.92886352539062	801.4375	347.9784240722656	51.24663543701172	687.4027099609375	515.1438598632812	87.279296875	670.8933715820312	311.5592651367188	762.537109375	1236.210083007812	336.2594909667969	848.3910522460938	1224.652465820312	
591	5.9	528.9161376953125	990.5467529296875	658.7817993164062	588.4981689453125	992.5299682617188	823.74609375	546.5778198242188	1067.195922851562	752.38134765625	322.308349609375	1250.894409179688	847.8071899414062	567.6297607421875	1180.07080078125	755.0892333984375	544.406982421875	1424.497436523438	799.5369262695312	388.9663696289062	1347.788940429688	836.157470703125	563.2364501953125	1292.678466796875	701.3192749023438	587.047607421875	1378.033203125	891.806640625	518.4364624023438	1389.21630859375	967.18017578125	553.281494140625	1273.676147460938	1037.48583984375	520.2700805664062	1085.953735351562	1094.720092773438	543.159912109375	1045.380004882812	1021.218139648438	367.38671875	921.60546875	1160.130981445312	425.6112670898438	900.117431640625	1198.431762695312	487.7861022949219	998.8187255859375	1138.744140625	391.25732421875	826.6038818359375	1229.42333984375	431.951904296875	1417.234985351562	668.264892578125	415.6793518066406	1363.201416015625	599.0152587890625	398.0304565429688	1103.15625	527.2819213867188	453.7701721191406	1084.636474609375	602.5786743164062	284.7624816894531	892.4107666015625	597.0121459960938	306.6781921386719	884.8584594726562	515.4169311523438	364.011474609375	1038.9541015625	518.675537109375	242.1789245605469	710.4368896484375	592.3063354492188	230.4096984863281	785.3447875976562	584.0027465820312	266.3058166503906	778.7998657226562	522.7423095703125	519.53076171875	1591.84814453125	771.4336547851562	378.3382873535156	1616.574096679688	926.33447265625	360.3415222167969	1629.704711914062	836.466064453125	546.2584228515625	1562.15576171875	912.2648315429688	557.14453125	950.694580078125	940.222900390625	394.843505859375	945.6512451171875	599.5924682617188	311.8949890136719	960.2317504882812	710.0599975585938	409.4764404296875	959.4204711914062	942.502197265625	464.6771240234375	488.42724609375	942.225830078125	484.3749084472656	630.5089111328125	956.7470703125	532.2769775390625	43.31234359741211	887.2843017578125	500.8554382324219	257.7300109863281	921.9785766601562	313.5589294433594	35.38603973388672	905.6638793945312	366.3799743652344	30.48141479492188	841.772216796875	421.583740234375	40.05049896240234	941.0769653320312	552.26220703125	40.14497756958008	815.9741821289062	262.9136657714844	493.6199645996094	696.0280151367188	302.1607971191406	748.158203125	644.2349243164062	439.4411926269531	73.0782470703125	660.81640625	283.7888488769531	368.14599609375	704.4188232421875	300.2186889648438	71.29339599609375	797.5953979492188	368.0682678222656	68.25302886962891	806.8077392578125	340.4819946289062	49.46533203125	692.9210205078125	508.565673828125	81.45203399658203	676.5657958984375	303.2958984375	764.525146484375	1234.586303710938	329.5487976074219	849.93408203125	1223.238159179688	
592	5.91	527.8787841796875	991.008056640625	660.419677734375	586.8797607421875	992.9226684570312	825.5896606445312	545.05517578125	1067.3623046875	754.0904541015625	320.4743347167969	1250.87451171875	848.8614501953125	566.126953125	1180.223022460938	756.8417358398438	542.7772827148438	1424.582885742188	801.2268676757812	387.1553344726562	1347.839233398438	837.457763671875	561.8560791015625	1292.848510742188	702.9916381835938	585.152587890625	1378.1044921875	893.6260986328125	516.3392944335938	1389.130126953125	968.8963623046875	550.83935546875	1273.16455078125	1038.866943359375	516.9271240234375	1085.1455078125	1094.573364257812	540.4010009765625	1044.846313476562	1021.023559570312	362.3564758300781	922.3427734375	1158.43994140625	420.0649719238281	899.9278564453125	1196.963500976562	483.7077026367188	998.1272583007812	1137.98828125	384.4003295898438	826.8619995117188	1227.556518554688	430.5204467773438	1417.267578125	669.6396484375	414.1947631835938	1363.03564453125	600.4727172851562	396.1430358886719	1102.587524414062	529.99755859375	452.67236328125	1084.64404296875	604.8153686523438	286.9482116699219	889.4827270507812	599.1966552734375	308.214111328125	883.1177978515625	517.4025268554688	363.0264587402344	1038.058837890625	521.3668212890625	248.7932586669922	706.5713500976562	593.4517211914062	235.1898193359375	781.1728515625	585.9942016601562	270.3887329101562	776.0148315429688	524.2030029296875	518.3143920898438	1591.929321289062	773.2529296875	376.702880859375	1616.6171875	927.7943115234375	358.9700927734375	1629.926391601562	837.9397583007812	544.574462890625	1561.982055664062	914.0994262695312	555.2007446289062	950.8334350585938	941.8727416992188	394.03515625	945.9425659179688	600.7998046875	310.6277160644531	960.240966796875	710.8134155273438	407.4879455566406	959.3070068359375	943.5490112304688	464.4717407226562	488.3058166503906	942.3717651367188	483.578369140625	630.4089965820312	957.3230590820312	532.2845458984375	43.28873443603516	887.251953125	500.9486389160156	257.7053833007812	921.9865112304688	313.5819396972656	35.40493011474609	905.642578125	366.4521484375	30.59419441223145	841.8228759765625	421.5821838378906	40.05485153198242	941.04833984375	552.2559814453125	40.09836959838867	815.9808349609375	263.831787109375	493.1532897949219	696.7001342773438	302.0343627929688	747.9512939453125	644.6864624023438	433.0933227539062	68.94013214111328	665.6497802734375	282.9128723144531	367.3905639648438	705.9188842773438	293.3333129882812	72.11092376708984	801.7142333984375	361.143310546875	67.45861053466797	811.3842163085938	333.5245666503906	47.8507080078125	697.6162719726562	502.3727111816406	76.1212158203125	681.5606079101562	295.3635864257812	766.2850952148438	1232.265991210938	323.1042175292969	851.2340698242188	1221.211303710938	
593	5.92	526.77587890625	991.4436645507812	661.985107421875	585.2344970703125	993.306884765625	827.3358154296875	543.4852294921875	1067.509399414062	755.6923828125	318.6339721679688	1250.860229492188	849.8463745117188	564.586181640625	1180.36083984375	758.4270629882812	541.121826171875	1424.66845703125	802.75439453125	385.3504028320312	1347.888427734375	838.6774291992188	560.4148559570312	1293.012817382812	704.5045166015625	583.2938232421875	1378.179565429688	895.2617797851562	514.3051147460938	1389.041137695312	970.4605102539062	548.5081176757812	1272.655029296875	1040.061889648438	513.7769775390625	1084.288330078125	1094.191772460938	537.875244140625	1044.327758789062	1020.577880859375	357.57568359375	922.8612060546875	1156.215454101562	414.7638244628906	899.5908813476562	1195.041015625	479.8318176269531	997.3563842773438	1136.900268554688	377.8284912109375	826.92138671875	1225.15087890625	428.9996643066406	1417.291625976562	670.9044799804688	412.5909729003906	1362.859497070312	601.8297729492188	394.1849670410156	1101.989135742188	532.6452026367188	451.515869140625	1084.639892578125	606.9733276367188	289.1412963867188	886.5654296875	601.4242553710938	309.6427917480469	881.4215087890625	519.4240112304688	361.9137878417969	1037.16259765625	524.05712890625	255.6429138183594	702.7838134765625	594.5890502929688	240.1384735107422	777.0197143554688	588.0556640625	274.4599609375	773.297119140625	525.6826782226562	517.080322265625	1591.988403320312	774.92236328125	375.1211547851562	1616.681640625	929.1694946289062	357.6217956542969	1630.163696289062	839.34228515625	542.9356689453125	1561.788940429688	915.7691040039062	553.2677001953125	950.9883422851562	943.4411010742188	393.1277465820312	946.195556640625	601.9796142578125	309.3345642089844	960.2490844726562	711.5684204101562	405.5177612304688	959.2069702148438	944.5451049804688	464.4207763671875	488.2029724121094	942.4622802734375	482.8944702148438	630.32080078125	957.8277587890625	532.3029174804688	43.26748275756836	887.2207641601562	501.1367797851562	257.7227172851562	921.9776000976562	313.61572265625	35.43179702758789	905.6149291992188	366.5795288085938	30.80488395690918	841.9102783203125	421.5894775390625	40.05413436889648	941.0186157226562	552.257568359375	40.05131530761719	815.986572265625	264.8853149414062	492.636474609375	697.3480834960938	301.9065551757812	747.7124633789062	645.1011352539062	427.2942810058594	65.23000335693359	669.7520751953125	282.2694091796875	366.6861877441406	707.1962280273438	287.0356140136719	72.5445556640625	805.0298461914062	354.7723388671875	66.47169494628906	815.14111328125	327.1994018554688	46.37030792236328	701.444580078125	496.6701049804688	71.31121063232422	685.8648681640625	287.806396484375	767.7514038085938	1229.256713867188	316.9317932128906	852.2494506835938	1218.579467773438	
